<mxfile host="app.diagrams.net" modified="2020-10-11T19:11:43.932Z" agent="5.0 (X11; Linux x86_64) AppleWebKit/537.36 (KHTML, like Gecko) Chrome/86.0.4240.75 Safari/537.36" etag="P15J0uZWHP9ptD2dmkQU" version="13.7.9" type="github">
  <diagram id="6a731a19-8d31-9384-78a2-239565b7b9f0" name="Page-1">
    <mxGraphModel dx="1157" dy="622" grid="1" gridSize="10" guides="1" tooltips="1" connect="1" arrows="1" fold="1" page="1" pageScale="1" pageWidth="2336" pageHeight="1654" background="#ffffff" math="0" shadow="0">
      <root>
        <mxCell id="0" />
        <mxCell id="1" parent="0" />
        <mxCell id="KyqKHredtBdgno-yCVTP-1780" value="" style="rounded=0;whiteSpace=wrap;html=1;dashed=1;fillColor=none;strokeColor=#000066;" vertex="1" parent="1">
          <mxGeometry x="500" y="220" width="360" height="410" as="geometry" />
        </mxCell>
        <mxCell id="1745" value="" style="edgeStyle=none;rounded=0;jumpStyle=none;html=1;shadow=0;labelBackgroundColor=none;startArrow=none;startFill=0;endArrow=classic;endFill=1;jettySize=auto;orthogonalLoop=1;strokeColor=#2F5B7C;strokeWidth=3;fontFamily=Helvetica;fontSize=16;fontColor=#23445D;spacing=5;exitX=0.5;exitY=0;exitDx=0;exitDy=0;" parent="1" source="1749" target="1764" edge="1">
          <mxGeometry relative="1" as="geometry">
            <mxPoint x="400" y="374" as="sourcePoint" />
            <Array as="points">
              <mxPoint x="415" y="275" />
            </Array>
          </mxGeometry>
        </mxCell>
        <mxCell id="1746" value="" style="edgeStyle=none;rounded=0;jumpStyle=none;html=1;shadow=0;labelBackgroundColor=none;startArrow=none;startFill=0;endArrow=classic;endFill=1;jettySize=auto;orthogonalLoop=1;strokeColor=#2F5B7C;strokeWidth=3;fontFamily=Helvetica;fontSize=16;fontColor=#23445D;spacing=5;exitX=0;exitY=0.5;exitDx=0;exitDy=0;entryX=0.5;entryY=1;entryDx=0;entryDy=0;" parent="1" source="1771" target="1749" edge="1">
          <mxGeometry relative="1" as="geometry">
            <mxPoint x="435" y="450" as="targetPoint" />
            <Array as="points">
              <mxPoint x="415" y="580" />
            </Array>
          </mxGeometry>
        </mxCell>
        <mxCell id="1747" value="" style="edgeStyle=none;rounded=0;jumpStyle=none;html=1;shadow=0;labelBackgroundColor=none;startArrow=none;startFill=0;endArrow=classic;endFill=1;jettySize=auto;orthogonalLoop=1;strokeColor=#2F5B7C;strokeWidth=3;fontFamily=Helvetica;fontSize=16;fontColor=#23445D;spacing=5;exitX=0.5;exitY=1;exitDx=0;exitDy=0;" parent="1" source="1753" target="1760" edge="1">
          <mxGeometry relative="1" as="geometry" />
        </mxCell>
        <mxCell id="1748" value="" style="edgeStyle=none;rounded=0;jumpStyle=none;html=1;shadow=0;labelBackgroundColor=none;startArrow=none;startFill=0;endArrow=classic;endFill=1;jettySize=auto;orthogonalLoop=1;strokeColor=#2F5B7C;strokeWidth=3;fontFamily=Helvetica;fontSize=16;fontColor=#23445D;spacing=5;exitX=1;exitY=0.5;exitDx=0;exitDy=0;" parent="1" source="1764" edge="1">
          <mxGeometry relative="1" as="geometry">
            <mxPoint x="760" y="324" as="targetPoint" />
            <Array as="points">
              <mxPoint x="760" y="275" />
            </Array>
          </mxGeometry>
        </mxCell>
        <mxCell id="1749" value="Vue Components" style="rounded=1;whiteSpace=wrap;html=1;shadow=0;labelBackgroundColor=none;strokeColor=none;strokeWidth=3;fontFamily=Helvetica;fontSize=16;fontColor=#FFFFFF;align=center;fontStyle=1;spacing=5;arcSize=7;perimeterSpacing=2;fillColor=#4D9900;" parent="1" vertex="1">
          <mxGeometry x="340" y="380" width="150" height="70" as="geometry" />
        </mxCell>
        <mxCell id="KyqKHredtBdgno-yCVTP-1786" style="edgeStyle=orthogonalEdgeStyle;rounded=0;orthogonalLoop=1;jettySize=auto;html=1;entryX=0.227;entryY=1;entryDx=0;entryDy=0;entryPerimeter=0;endArrow=halfCircle;endFill=0;strokeColor=#000099;strokeWidth=1;" edge="1" parent="1" source="1753" target="KyqKHredtBdgno-yCVTP-1774">
          <mxGeometry relative="1" as="geometry">
            <Array as="points">
              <mxPoint x="820" y="280" />
              <mxPoint x="820" y="280" />
            </Array>
          </mxGeometry>
        </mxCell>
        <mxCell id="1753" value="Mutations" style="rounded=1;whiteSpace=wrap;html=1;shadow=0;labelBackgroundColor=none;strokeColor=none;strokeWidth=3;fillColor=#e85642;fontFamily=Helvetica;fontSize=14;fontColor=#FFFFFF;align=center;spacing=5;fontStyle=1;arcSize=7;perimeterSpacing=2;" parent="1" vertex="1">
          <mxGeometry x="690" y="325.5" width="150" height="60" as="geometry" />
        </mxCell>
        <mxCell id="KyqKHredtBdgno-yCVTP-1785" style="edgeStyle=orthogonalEdgeStyle;rounded=0;orthogonalLoop=1;jettySize=auto;html=1;entryX=1.005;entryY=0.84;entryDx=0;entryDy=0;endArrow=halfCircle;endFill=0;strokeColor=#000099;strokeWidth=1;entryPerimeter=0;" edge="1" parent="1" source="1764" target="gh77MXFz4nCD-7koQr1Y-1785">
          <mxGeometry relative="1" as="geometry">
            <Array as="points">
              <mxPoint x="540" y="201" />
            </Array>
          </mxGeometry>
        </mxCell>
        <mxCell id="1764" value="Actions" style="rounded=1;whiteSpace=wrap;html=1;shadow=0;labelBackgroundColor=none;strokeColor=none;strokeWidth=3;fillColor=#F08705;fontFamily=Helvetica;fontSize=14;fontColor=#FFFFFF;align=center;spacing=5;fontStyle=1;arcSize=7;perimeterSpacing=2;" parent="1" vertex="1">
          <mxGeometry x="530" y="244.5" width="150" height="60" as="geometry" />
        </mxCell>
        <mxCell id="KyqKHredtBdgno-yCVTP-1784" style="edgeStyle=orthogonalEdgeStyle;rounded=0;orthogonalLoop=1;jettySize=auto;html=1;endArrow=halfCircle;endFill=0;strokeColor=#000099;strokeWidth=1;" edge="1" parent="1" source="1771" target="KyqKHredtBdgno-yCVTP-1776">
          <mxGeometry relative="1" as="geometry">
            <Array as="points">
              <mxPoint x="570" y="620" />
              <mxPoint x="435" y="620" />
            </Array>
          </mxGeometry>
        </mxCell>
        <mxCell id="1771" value="Getters" style="rounded=1;whiteSpace=wrap;html=1;shadow=0;labelBackgroundColor=none;strokeColor=none;strokeWidth=3;fillColor=#12aab5;fontFamily=Helvetica;fontSize=14;fontColor=#FFFFFF;align=center;spacing=5;fontStyle=1;arcSize=7;perimeterSpacing=2;" parent="1" vertex="1">
          <mxGeometry x="540" y="549.9999999999999" width="150" height="60" as="geometry" />
        </mxCell>
        <mxCell id="KyqKHredtBdgno-yCVTP-1782" style="edgeStyle=orthogonalEdgeStyle;rounded=0;orthogonalLoop=1;jettySize=auto;html=1;entryX=0;entryY=0.5;entryDx=0;entryDy=0;endArrow=halfCircle;endFill=0;strokeColor=#000099;strokeWidth=1;" edge="1" parent="1" source="1760" target="KyqKHredtBdgno-yCVTP-1775">
          <mxGeometry relative="1" as="geometry" />
        </mxCell>
        <mxCell id="1760" value="State" style="rounded=1;whiteSpace=wrap;html=1;shadow=0;labelBackgroundColor=none;strokeColor=none;strokeWidth=3;fillColor=#1699d3;fontFamily=Helvetica;fontSize=14;fontColor=#FFFFFF;align=center;spacing=5;fontStyle=1;arcSize=7;perimeterSpacing=2;" parent="1" vertex="1">
          <mxGeometry x="690" y="430" width="150" height="60" as="geometry" />
        </mxCell>
        <mxCell id="gh77MXFz4nCD-7koQr1Y-1781" value="" style="edgeStyle=none;rounded=1;jumpStyle=none;html=1;shadow=0;labelBackgroundColor=none;startArrow=none;startFill=0;jettySize=auto;orthogonalLoop=1;strokeColor=#12AAB5;strokeWidth=3;fontFamily=Helvetica;fontSize=14;fontColor=#FFFFFF;spacing=5;fontStyle=1;fillColor=#b0e3e6;exitX=0.5;exitY=1;exitDx=0;exitDy=0;entryX=1;entryY=0.5;entryDx=0;entryDy=0;" edge="1" parent="1" source="1760" target="1771">
          <mxGeometry relative="1" as="geometry">
            <mxPoint x="522" y="531.2842519685039" as="sourcePoint" />
            <mxPoint x="640" y="490" as="targetPoint" />
            <Array as="points">
              <mxPoint x="765" y="580" />
            </Array>
          </mxGeometry>
        </mxCell>
        <mxCell id="gh77MXFz4nCD-7koQr1Y-1782" value="&lt;span style=&quot;color: rgb(255 , 255 , 255) ; font-family: &amp;#34;helvetica&amp;#34; ; font-size: 14px ; font-style: normal ; font-weight: 700 ; letter-spacing: normal ; text-align: center ; text-indent: 0px ; text-transform: none ; word-spacing: 0px ; display: inline ; float: none&quot;&gt;Backend API&lt;/span&gt;" style="ellipse;whiteSpace=wrap;html=1;strokeColor=none;fillColor=#000066;" vertex="1" parent="1">
          <mxGeometry x="549" y="70" width="110" height="110" as="geometry" />
        </mxCell>
        <mxCell id="gh77MXFz4nCD-7koQr1Y-1784" value="" style="endArrow=classic;startArrow=classic;html=1;rounded=0;strokeWidth=3;strokeColor=#000099;exitX=0.5;exitY=0;exitDx=0;exitDy=0;entryX=0.5;entryY=1;entryDx=0;entryDy=0;" edge="1" parent="1" source="1764" target="gh77MXFz4nCD-7koQr1Y-1782">
          <mxGeometry width="50" height="50" relative="1" as="geometry">
            <mxPoint x="600" y="217" as="sourcePoint" />
            <mxPoint x="650" y="167" as="targetPoint" />
          </mxGeometry>
        </mxCell>
        <mxCell id="gh77MXFz4nCD-7koQr1Y-1785" value="&lt;table border=&quot;1&quot; width=&quot;100%&quot; cellpadding=&quot;4&quot; style=&quot;width: 100% ; height: 100% ; border-collapse: collapse&quot;&gt;&lt;tbody&gt;&lt;tr&gt;&lt;th align=&quot;center&quot;&gt;Actions&lt;/th&gt;&lt;/tr&gt;&lt;tr&gt;&lt;td align=&quot;center&quot;&gt;Dispara funções assíncronas. (async)&lt;br&gt;Atraves de um commit que envia para &#39;mutations&#39;&lt;/td&gt;&lt;/tr&gt;&lt;tr&gt;&lt;td align=&quot;center&quot;&gt;&lt;br&gt;&lt;/td&gt;&lt;/tr&gt;&lt;/tbody&gt;&lt;/table&gt;" style="text;html=1;strokeColor=none;overflow=fill;fillColor=#ffffff;imageAspect=1;" vertex="1" parent="1">
          <mxGeometry x="180" y="50" width="300" height="180" as="geometry" />
        </mxCell>
        <mxCell id="gh77MXFz4nCD-7koQr1Y-1787" value="&lt;table border=&quot;1&quot; width=&quot;100%&quot; cellpadding=&quot;4&quot; style=&quot;width: 100% ; height: 100% ; border-collapse: collapse&quot;&gt;&lt;tbody&gt;&lt;tr&gt;&lt;th style=&quot;text-align: center&quot;&gt;VUEX&lt;/th&gt;&lt;/tr&gt;&lt;tr&gt;&lt;td&gt;const store = new Vuex.Store({&lt;br&gt;&amp;nbsp; &amp;nbsp; state: {&lt;br&gt;&amp;nbsp; &amp;nbsp; &amp;nbsp; &amp;nbsp; counter: 0&lt;br&gt;&amp;nbsp; &amp;nbsp; },&lt;br&gt;&amp;nbsp; &amp;nbsp; mutations: {&lt;br&gt;&amp;nbsp; &amp;nbsp; &amp;nbsp; &amp;nbsp; &amp;nbsp; decrement: state =&amp;gt; state.counter--,&lt;br&gt;&amp;nbsp; &amp;nbsp; &amp;nbsp; &amp;nbsp; &amp;nbsp; increment: (state, num ) =&amp;gt; state.counter = state.counter * num&lt;br&gt;&amp;nbsp; &amp;nbsp; &amp;nbsp;},&lt;br&gt;&amp;nbsp; &amp;nbsp; &amp;nbsp;getters: {&lt;br&gt;&amp;nbsp; &amp;nbsp; &amp;nbsp; &amp;nbsp; &amp;nbsp; counter: state =&amp;gt; state.counter * 2&lt;br&gt;&amp;nbsp; &amp;nbsp; &amp;nbsp;},&lt;br&gt;&amp;nbsp; &amp;nbsp; &amp;nbsp;actions: {&lt;br&gt;&amp;nbsp; &amp;nbsp; &amp;nbsp; &amp;nbsp; &amp;nbsp; &amp;nbsp; &amp;nbsp;decrement: ({ commit }) =&amp;gt; commit(&#39;decrement&#39;),&lt;br&gt;&amp;nbsp; &amp;nbsp; &amp;nbsp; &amp;nbsp; &amp;nbsp; &amp;nbsp; &amp;nbsp;increment: context =&amp;gt; &lt;br&gt;&lt;br&gt;&amp;nbsp; &amp;nbsp; &amp;nbsp; &amp;nbsp; &amp;nbsp; &amp;nbsp; &amp;nbsp; &amp;nbsp; &amp;nbsp; &amp;nbsp;// simulando uma conexao para uma API&lt;br&gt;&amp;nbsp; &amp;nbsp; &amp;nbsp; &amp;nbsp; &amp;nbsp; &amp;nbsp; &amp;nbsp; &amp;nbsp; &amp;nbsp; setTimeout(() =&amp;gt; {&lt;br&gt;&amp;nbsp; &amp;nbsp; &amp;nbsp; &amp;nbsp; &amp;nbsp; &amp;nbsp; &amp;nbsp; &amp;nbsp; &amp;nbsp; &amp;nbsp; &amp;nbsp; &amp;nbsp; context.commit(&#39;increment&#39;, 5)&lt;br&gt;&amp;nbsp; &amp;nbsp; &amp;nbsp; &amp;nbsp; &amp;nbsp; &amp;nbsp; &amp;nbsp; &amp;nbsp; &amp;nbsp; }, 2000)&lt;br&gt;&amp;nbsp; &amp;nbsp; &amp;nbsp; }&lt;br&gt;})&lt;/td&gt;&lt;/tr&gt;&lt;tr&gt;&lt;td&gt;export { store }&lt;/td&gt;&lt;/tr&gt;&lt;/tbody&gt;&lt;/table&gt;" style="text;html=1;strokeColor=none;overflow=fill;align=left;fillColor=#ffffff;" vertex="1" parent="1">
          <mxGeometry x="700" y="660" width="420" height="390" as="geometry" />
        </mxCell>
        <mxCell id="KyqKHredtBdgno-yCVTP-1771" value="&lt;table border=&quot;1&quot; width=&quot;100%&quot; cellpadding=&quot;4&quot; style=&quot;width: 100% ; height: 100% ; border-collapse: collapse&quot;&gt;&lt;tbody&gt;&lt;tr&gt;&lt;th style=&quot;text-align: center&quot;&gt;VueComponent&lt;/th&gt;&lt;/tr&gt;&lt;tr&gt;&lt;td&gt;import { mapGetters, mapActions } from &#39;vuex&#39;&lt;/td&gt;&lt;/tr&gt;&lt;tr&gt;&lt;td&gt;computed{&lt;br&gt;&amp;nbsp; &amp;nbsp; &amp;nbsp;...mapGetters([&lt;br&gt;&amp;nbsp; &amp;nbsp; &amp;nbsp; &amp;nbsp; &amp;nbsp; &#39;counter&#39;&lt;br&gt;&lt;br&gt;&amp;nbsp; &amp;nbsp; &amp;nbsp; ])&lt;br&gt;},&lt;br&gt;methods: {&lt;br&gt;&amp;nbsp; &amp;nbsp; ...mapAction([&lt;br&gt;&amp;nbsp; &amp;nbsp; &amp;nbsp; &amp;nbsp; &amp;nbsp; &amp;nbsp;&#39;decrement&#39;,&lt;br&gt;&amp;nbsp; &amp;nbsp; &amp;nbsp; &amp;nbsp; &amp;nbsp; &amp;nbsp;&#39;increment&#39;&lt;br&gt;&amp;nbsp; &amp;nbsp; &amp;nbsp;])&lt;br&gt;}&lt;/td&gt;&lt;/tr&gt;&lt;/tbody&gt;&lt;/table&gt;" style="text;html=1;strokeColor=none;overflow=fill;align=left;fillColor=#ffffff;" vertex="1" parent="1">
          <mxGeometry x="60" y="280" width="270" height="310" as="geometry" />
        </mxCell>
        <mxCell id="KyqKHredtBdgno-yCVTP-1781" style="edgeStyle=orthogonalEdgeStyle;rounded=0;orthogonalLoop=1;jettySize=auto;html=1;strokeColor=#000099;strokeWidth=1;endArrow=halfCircle;endFill=0;" edge="1" parent="1" source="KyqKHredtBdgno-yCVTP-1772">
          <mxGeometry relative="1" as="geometry">
            <mxPoint x="860" y="556" as="targetPoint" />
          </mxGeometry>
        </mxCell>
        <mxCell id="KyqKHredtBdgno-yCVTP-1783" style="edgeStyle=orthogonalEdgeStyle;rounded=0;orthogonalLoop=1;jettySize=auto;html=1;endArrow=halfCircle;endFill=0;strokeColor=#000099;strokeWidth=1;" edge="1" parent="1" source="KyqKHredtBdgno-yCVTP-1772" target="gh77MXFz4nCD-7koQr1Y-1787">
          <mxGeometry relative="1" as="geometry" />
        </mxCell>
        <mxCell id="KyqKHredtBdgno-yCVTP-1772" value="&lt;font color=&quot;#ffffff&quot; face=&quot;helvetica&quot;&gt;&lt;span style=&quot;font-size: 14px&quot;&gt;&lt;b&gt;VUEX&lt;/b&gt;&lt;/span&gt;&lt;/font&gt;" style="html=1;whiteSpace=wrap;aspect=fixed;shape=isoRectangle;fillColor=#000066;" vertex="1" parent="1">
          <mxGeometry x="920" y="510" width="150" height="90" as="geometry" />
        </mxCell>
        <mxCell id="KyqKHredtBdgno-yCVTP-1774" value="&lt;table border=&quot;1&quot; width=&quot;100%&quot; cellpadding=&quot;4&quot; style=&quot;width: 100% ; height: 100% ; border-collapse: collapse&quot;&gt;&lt;tbody&gt;&lt;tr&gt;&lt;th align=&quot;center&quot;&gt;Mutations&lt;/th&gt;&lt;/tr&gt;&lt;tr&gt;&lt;td align=&quot;center&quot;&gt;Funções responsaveis por alterar o valor de um state&lt;/td&gt;&lt;/tr&gt;&lt;tr&gt;&lt;td align=&quot;center&quot;&gt;&lt;br&gt;&lt;/td&gt;&lt;/tr&gt;&lt;/tbody&gt;&lt;/table&gt;" style="text;html=1;strokeColor=none;overflow=fill;fillColor=#ffffff;" vertex="1" parent="1">
          <mxGeometry x="745" y="10" width="330" height="180" as="geometry" />
        </mxCell>
        <mxCell id="KyqKHredtBdgno-yCVTP-1775" value="&lt;table border=&quot;1&quot; width=&quot;100%&quot; cellpadding=&quot;4&quot; style=&quot;width: 100% ; height: 100% ; border-collapse: collapse&quot;&gt;&lt;tbody&gt;&lt;tr&gt;&lt;th align=&quot;center&quot;&gt;State&lt;/th&gt;&lt;/tr&gt;&lt;tr&gt;&lt;td align=&quot;center&quot;&gt;São as variáveis em si&lt;/td&gt;&lt;/tr&gt;&lt;tr&gt;&lt;td align=&quot;center&quot;&gt;&lt;br&gt;&lt;/td&gt;&lt;/tr&gt;&lt;/tbody&gt;&lt;/table&gt;" style="text;html=1;strokeColor=none;overflow=fill;fillColor=#ffffff;" vertex="1" parent="1">
          <mxGeometry x="910" y="300" width="190" height="180" as="geometry" />
        </mxCell>
        <mxCell id="KyqKHredtBdgno-yCVTP-1776" value="&lt;table border=&quot;1&quot; width=&quot;100%&quot; cellpadding=&quot;4&quot; style=&quot;width: 100% ; height: 100% ; border-collapse: collapse&quot;&gt;&lt;tbody&gt;&lt;tr&gt;&lt;th align=&quot;center&quot;&gt;Getters&lt;/th&gt;&lt;/tr&gt;&lt;tr&gt;&lt;td align=&quot;center&quot;&gt;Ao inves de vocês apenas pegar o state (variave) que deseja, &lt;br&gt;voĉe consulta o getters que retorna um state com alguma&lt;br&gt;tratativa do dado.&amp;nbsp;&lt;/td&gt;&lt;/tr&gt;&lt;tr&gt;&lt;td align=&quot;center&quot;&gt;&lt;br&gt;&lt;/td&gt;&lt;/tr&gt;&lt;/tbody&gt;&lt;/table&gt;" style="text;html=1;strokeColor=none;overflow=fill;fillColor=#ffffff;" vertex="1" parent="1">
          <mxGeometry x="250" y="650" width="370" height="180" as="geometry" />
        </mxCell>
      </root>
    </mxGraphModel>
  </diagram>
</mxfile>
